<?xml version="1.0" encoding="iso-8859-1"?>
<!-- Generator: Adobe Illustrator 19.0.0, SVG Export Plug-In . SVG Version: 6.00 Build 0)  -->
<svg version="1.1" id="Capa_1" xmlns="http://www.w3.org/2000/svg" xmlns:xlink="http://www.w3.org/1999/xlink" x="0px" y="0px"
	 viewBox="0 0 463 463" style="enable-background:new 0 0 463 463;" xml:space="preserve">
<g>
	<path d="M444.767,325.558c-0.336-0.712-0.831-2.07-0.361-3.168C456.744,293.544,463,262.964,463,231.5
		c0-59.894-22.701-116.482-64.002-159.75C399,71.667,399,71.584,399,71.5c0-17.369-14.131-31.5-31.5-31.5
		c-1.702,0-3.441,0.167-5.253,0.508C323.61,13.997,278.477,0,231.5,0C171.824,0,115.149,22.669,71.918,63.831
		c-0.815,0.777-1.807,1.11-2.654,0.894C67.385,64.244,65.446,64,63.5,64C50.542,64,40,74.542,40,87.5
		c0,3.148,0.629,6.213,1.869,9.107c0.41,0.958,0.021,2.068-0.48,2.788C14.312,138.287,0,183.968,0,231.5
		c0,30.346,5.776,59.817,17.173,87.645C16.394,321.908,16,324.707,16,327.5c0,13.086,7.911,24.598,20.154,29.326
		c0.728,0.281,1.119,0.584,1.242,0.773C80.357,423.598,152.919,463,231.5,463c24.962,0,49.549-3.968,73.081-11.794
		c1.125-0.377,2.331,0.115,3.144,0.592c3.569,2.095,7.641,3.202,11.775,3.202c11.954,0,21.851-8.972,23.314-20.535
		c32.434-17.831,60.39-43.423,81.053-74.244c0.617-0.92,1.911-1.34,2.888-1.531c6.34-1.237,11.729-6.048,17.47-15.601
		c2.4-3.992,3.171-8.766,2.115-13.097C445.969,328.473,445.44,326.98,444.767,325.558z M431.208,331.972
		c0.24,0.507,0.428,1.037,0.559,1.574c0.122,0.499-0.034,1.212-0.397,1.816c-4.631,7.705-7.049,8.521-7.486,8.606
		c-5.402,1.054-9.717,3.786-12.476,7.901c-20.117,30.006-47.623,54.714-79.545,71.452c-2.702,1.417-4.277,4.33-3.982,7.367
		c0.026,0.272,0.061,0.541,0.098,0.81l0.021,0.159c-0.084,4.615-3.864,8.343-8.499,8.343c-1.488,0-2.896-0.383-4.182-1.138
		c-4.933-2.897-10.427-3.568-15.472-1.89C277.845,444.29,254.85,448,231.5,448c-73.488,0-141.351-36.854-181.532-98.584
		c-1.897-2.914-4.805-5.19-8.409-6.583C35.145,340.356,31,334.337,31,327.5c0-1.95,0.392-3.949,1.165-5.942
		c0.706-1.82,0.675-3.843-0.087-5.64C20.746,289.183,15,260.781,15,231.5c0-44.452,13.382-87.169,38.699-123.534
		c3.625-5.207,4.357-11.66,1.958-17.264C55.221,89.684,55,88.606,55,87.5c0-4.687,3.813-8.5,8.5-8.5
		c0.693,0,1.383,0.086,2.048,0.256c5.885,1.505,12.132-0.201,16.713-4.563C122.691,36.2,175.692,15,231.5,15
		c45.001,0,88.188,13.732,124.892,39.711c1.875,1.328,4.257,1.722,6.46,1.07C364.654,55.248,366.131,55,367.5,55
		c9.098,0,16.5,7.402,16.5,16.5c0,0.269-0.07,0.777-0.138,1.269c-0.036,0.259-0.071,0.519-0.104,0.779
		c-0.285,2.275,0.487,4.555,2.094,6.19C425.929,120.494,448,174.391,448,231.5c0,29.425-5.849,58.02-17.385,84.99
		C428.554,321.308,428.764,326.806,431.208,331.972z"/>
	<path d="M180.803,50.197c-2.929-2.929-7.678-2.929-10.606,0c-2.929,2.929-2.929,7.678,0,10.606l230.976,230.976
		c1.464,1.464,3.384,2.197,5.303,2.197s3.839-0.732,5.303-2.197c2.929-2.929,2.929-7.678,0-10.606L180.803,50.197z"/>
	<path d="M137.732,71.126c-2.929-2.929-7.678-2.929-10.606,0c-2.929,2.929-2.929,7.678,0,10.606l254.143,254.143
		c1.464,1.464,3.384,2.197,5.303,2.197s3.839-0.732,5.303-2.197c2.929-2.929,2.929-7.678,0-10.606L137.732,71.126z"/>
	<path d="M102.76,100.153c-2.929-2.929-7.678-2.929-10.606,0c-2.929,2.929-2.929,7.678,0,10.606l260.089,260.089
		c1.464,1.464,3.384,2.197,5.303,2.197s3.839-0.732,5.303-2.197c2.929-2.929,2.929-7.678,0-10.606L102.76,100.153z"/>
	<path d="M75.758,137.152c-2.929-2.929-7.678-2.929-10.606,0c-2.929,2.929-2.929,7.678,0,10.606l250.09,250.09
		c1.464,1.464,3.384,2.197,5.303,2.197s3.839-0.732,5.303-2.197c2.929-2.929,2.929-7.678,0-10.606L75.758,137.152z"/>
	<path d="M57.862,183.255c-2.929-2.929-7.678-2.929-10.606,0c-2.929,2.929-2.929,7.678,0,10.606l221.883,221.883
		c1.464,1.464,3.384,2.197,5.303,2.197s3.839-0.732,5.303-2.197c2.929-2.929,2.929-7.678,0-10.606L57.862,183.255z"/>
	<path d="M53.572,242.966c-2.929-2.929-7.678-2.929-10.606,0c-2.929,2.929-2.929,7.678,0,10.606l165.481,165.48
		c1.464,1.464,3.384,2.197,5.303,2.197s3.839-0.732,5.303-2.197c2.929-2.929,2.929-7.678,0-10.606L53.572,242.966z"/>
	<path d="M389.667,152.274c1.464,1.464,3.384,2.197,5.303,2.197s3.839-0.732,5.303-2.197c2.929-2.929,2.929-7.678,0-10.606
		l-79.442-79.442c-2.929-2.929-7.678-2.929-10.606,0c-2.929,2.929-2.929,7.678,0,10.606L389.667,152.274z"/>
	<path d="M236.803,42.197c-2.929-2.929-7.678-2.929-10.606,0c-2.929,2.929-2.929,7.678,0,10.606l184,184
		c1.464,1.464,3.384,2.197,5.303,2.197s3.839-0.732,5.303-2.197c2.929-2.929,2.929-7.678,0-10.606L236.803,42.197z"/>
</g>
<g>
</g>
<g>
</g>
<g>
</g>
<g>
</g>
<g>
</g>
<g>
</g>
<g>
</g>
<g>
</g>
<g>
</g>
<g>
</g>
<g>
</g>
<g>
</g>
<g>
</g>
<g>
</g>
<g>
</g>
</svg>
