<?xml version="1.0" encoding="iso-8859-1"?>
<!-- Generator: Adobe Illustrator 19.0.0, SVG Export Plug-In . SVG Version: 6.00 Build 0)  -->
<svg version="1.1" id="Layer_1" xmlns="http://www.w3.org/2000/svg" xmlns:xlink="http://www.w3.org/1999/xlink" x="0px" y="0px"
	 viewBox="0 0 511.992 511.992" style="enable-background:new 0 0 511.992 511.992;" xml:space="preserve">
<polygon style="fill:#ED5564;" points="337.994,194.67 181.341,199.998 161.998,241.341 161.998,496.665 353.307,496.665 "/>
<g>
	<path style="fill:#FFCE54;" d="M294.996,321.496l-11.5-26.999c0,0-30-6.5-31.5-7l-30.499,10.5l-6,30.499l-20,7.999l7.5,100.999
		h103.998l10-106.842L294.996,321.496z"/>
	<polygon style="fill:#FFCE54;" points="203.997,13.001 206.997,42 308.495,42 308.495,14.501 	"/>
</g>
<polygon style="fill:#F5F7FA;" points="304.995,143.499 300.496,46 215.497,46 212.997,123.499 203.997,148.498 175.498,198.498 
	335.995,201.998 "/>
<polygon style="fill:#FFCE54;" points="283.996,82.999 255.996,73 220.497,83.999 209.997,100.999 221.497,127.999 236.997,134.499 
	266.668,134.499 293.996,123.999 293.996,83.999 "/>
<path d="M309.308,128.061l0.031-74.718c5.875,0,10.656-4.781,10.656-10.687v-32C319.995,4.781,315.214,0,309.339,0l0,0l0,0h-106.67
	h-0.094l0,0c-5.844,0.062-10.578,4.812-10.578,10.656v32c0,5.906,4.781,10.656,10.656,10.687l0.047,32.093v42.609
	c-1.953,3.141-53.358,86.092-53.358,127.951c0,42.656,0,245.34,0,245.34c0,5.875,4.781,10.656,10.656,10.656h191.996
	c5.906,0,10.656-4.781,10.656-10.656c0,0,0-202.684,0-245.34C362.65,213.341,309.308,128.061,309.308,128.061z M224.091,117.39
	L224.06,96h3.766h8.062l6.046-5.312c3.891-3.438,8.891-5.328,14.062-5.328c5.188,0,10.188,1.891,14.094,5.328L276.121,96h8.062
	h3.813v21.39h-3.812h-8.062l-6.031,5.328c-3.906,3.422-8.906,5.312-14.094,5.312c-5.172,0-10.172-1.891-14.062-5.312l-6.046-5.328
	h-8.062C227.827,117.39,224.091,117.39,224.091,117.39z M284.184,74.656c-7.532-6.609-17.376-10.625-28.188-10.625
	c-10.797,0-20.655,4.016-28.171,10.625h-3.797l-0.031-21.312h63.999v21.312H284.184z M213.341,32V21.344h85.312V32H213.341z
	 M220.856,139.249l0.328-0.531h6.641c7.516,6.625,17.374,10.64,28.171,10.64c10.812,0,20.656-4.016,28.188-10.64h6.625l0.406,0.656
	c0.156,0.188,12.968,20.75,25.687,46.202c1.125,2.203,2.156,4.328,3.156,6.422H191.95c0.969-2.031,1.984-4.094,3.031-6.172
	C207.731,160.311,220.731,139.468,220.856,139.249z M341.338,490.649h-10.687c0-5.875-4.781-10.656-10.656-10.656
	c-5.906,0-10.656,4.781-10.656,10.656h-10.687c0-5.875-4.75-10.656-10.656-10.656s-10.656,4.781-10.656,10.656h-10.672
	c0-5.875-4.766-10.656-10.672-10.656c-5.891,0-10.656,4.781-10.656,10.656h-10.671c0-5.875-4.766-10.656-10.672-10.656
	c-5.875,0-10.656,4.781-10.656,10.656h-10.672c0-5.875-4.766-10.656-10.672-10.656c-5.875,0-10.656,4.781-10.656,10.656H170.67
	V255.997c0-4.984,1.219-14.344,7.046-30.671c1.359-3.812,2.906-7.812,4.625-11.984h147.342
	c9.874,23.891,11.655,36.593,11.655,42.656L341.338,490.649L341.338,490.649z"/>
<path d="M256.043,277.341c-50.374,0-49.78,42.655-49.78,42.655h-24.922l12.484,127.998h124.42l12.406-127.998h-24.844
	C305.808,319.996,306.401,277.341,256.043,277.341z M307.151,341.339l-8.249,85.312h-85.733l-8.312-85.312h1.406l22.453,0.75
	l-1.109-22.218c0.062-1.062,0.516-6.562,3.703-11.469c1.719-2.656,3.969-4.687,6.891-6.218c4.452-2.344,10.452-3.531,17.843-3.531
	c7.375,0,13.391,1.188,17.828,3.531c2.938,1.531,5.188,3.562,6.906,6.218c3.188,4.906,3.625,10.406,3.688,11.469l-1.062,21.468
	h22.405L307.151,341.339L307.151,341.339z"/>
<path d="M277.34,373.339L277.34,373.339h-42.671l0,0l0,0c-5.891,0-10.672,4.766-10.672,10.656s4.781,10.656,10.672,10.656l0,0l0,0
	h42.671l0,0c5.875,0,10.656-4.766,10.656-10.656S283.215,373.339,277.34,373.339z"/>
<path d="M255.996,351.995c5.906,0,10.672-4.781,10.672-10.656c0-5.905-4.766-10.687-10.672-10.687
	c-5.875,0-10.656,4.781-10.656,10.687C245.34,347.214,250.121,351.995,255.996,351.995z"/>
<path d="M256.012,117.358c5.891,0,10.672-4.766,10.672-10.671c0-5.875-4.781-10.656-10.672-10.656
	c-5.891,0-10.672,4.781-10.672,10.656C245.34,112.593,250.121,117.358,256.012,117.358z"/>
<g>
</g>
<g>
</g>
<g>
</g>
<g>
</g>
<g>
</g>
<g>
</g>
<g>
</g>
<g>
</g>
<g>
</g>
<g>
</g>
<g>
</g>
<g>
</g>
<g>
</g>
<g>
</g>
<g>
</g>
</svg>
