<?xml version="1.0" encoding="iso-8859-1"?>
<!-- Generator: Adobe Illustrator 19.0.0, SVG Export Plug-In . SVG Version: 6.00 Build 0)  -->
<svg version="1.1" id="Layer_1" xmlns="http://www.w3.org/2000/svg" xmlns:xlink="http://www.w3.org/1999/xlink" x="0px" y="0px"
	 viewBox="0 0 512 512" style="enable-background:new 0 0 512 512;" xml:space="preserve">
<g>
	<g>
		<g>
			<circle cx="384.741" cy="380.529" r="15.329"/>
			<circle cx="416.399" cy="307.202" r="15.329"/>
			<circle cx="114.752" cy="335.491" r="15.329"/>
			<circle cx="183.404" cy="416.655" r="15.329"/>
			<circle cx="168.076" cy="350.818" r="15.328"/>
			<path d="M316.077,118.027c4.481,0,8.114-3.632,8.114-8.114c0-3.976,3.234-7.209,7.209-7.209c3.976,0,7.209,3.234,7.209,7.209
				c0,4.482,3.632,8.114,8.114,8.114s8.114-3.632,8.114-8.114c0-12.923-10.515-23.437-23.437-23.437
				c-12.923,0-23.437,10.515-23.437,23.437C307.963,114.394,311.595,118.027,316.077,118.027z"/>
			<path d="M347.792,138.937h-32.786c-4.482,0-8.114,3.632-8.114,8.114s3.632,8.114,8.114,8.114h32.786
				c4.482,0,8.114-3.632,8.114-8.114S352.274,138.937,347.792,138.937z"/>
			<path d="M500.638,240.17c1.261-1.797,2.508-3.723,3.729-5.811c0.199-0.297,0.381-0.61,0.541-0.937
				c6.075-12.355,7.459-26.45,3.895-39.694l-0.242-0.918c-9.696-37.092-28.246-73.774-52.237-103.289
				c-21.376-26.299-47.096-47.171-76.448-62.035C343.863,9.248,302.186,0,256,0c-46.189,0-87.869,9.249-123.883,27.49
				c-29.352,14.867-55.072,35.74-76.448,62.042c-23.99,29.516-42.538,66.196-52.229,103.282l-0.241,0.915
				c-3.566,13.243-2.184,27.34,3.894,39.694c0.174,0.355,0.374,0.695,0.595,1.015c1.205,2.056,2.435,3.951,3.678,5.723
				c-3.647,6.597-5.56,13.971-5.56,21.647c0,11.804,4.685,23.074,12.816,31.404c-5.685,10.158-7.279,22.258-4.207,33.656
				c3.169,11.767,10.905,21.593,21.324,27.461c-3.104,11.548-1.504,23.951,4.682,34.453c5.781,9.816,14.859,16.907,25.547,20.156
				c0.471,11.161,5.063,21.728,13.117,29.783c8.054,8.057,18.62,12.649,29.783,13.117c3.25,10.689,10.343,19.768,20.159,25.55
				c10.502,6.184,22.904,7.783,34.451,4.68c5.867,10.418,15.693,18.156,27.462,21.326c11.398,3.07,23.5,1.477,33.656-4.207
				c8.328,8.128,19.599,12.812,31.402,12.812c11.804,0,23.074-4.684,31.402-12.813c10.156,5.684,22.258,7.28,33.655,4.208
				c11.77-3.169,21.595-10.906,27.463-21.326c11.542,3.101,23.95,1.504,34.454-4.681c9.815-5.781,16.906-14.861,20.156-25.55
				c11.163-0.471,21.729-5.062,29.783-13.116c8.053-8.054,12.646-18.62,13.115-29.781c10.689-3.25,19.768-10.341,25.548-20.157
				c6.187-10.503,7.787-22.906,4.683-34.453c10.419-5.868,18.156-15.693,21.324-27.461c3.07-11.398,1.477-23.501-4.207-33.658
				c8.129-8.328,12.813-19.599,12.813-31.404C506.191,254.135,504.281,246.764,500.638,240.17z M477.907,285.185
				c-1.828,1.306-3.036,3.312-3.33,5.54c-0.294,2.228,0.348,4.479,1.775,6.215c5.89,7.167,7.97,16.779,5.564,25.709
				c-2.489,9.247-9.398,16.616-18.479,19.717c-2.193,0.748-3.962,2.4-4.86,4.536c-0.897,2.138-0.837,4.557,0.162,6.647
				c4.145,8.654,3.717,18.746-1.145,26.999c-4.506,7.65-12.154,12.711-20.984,13.882c-4.409,0.584-7.524,4.609-6.988,9.024
				c1.076,8.843-1.907,17.515-8.184,23.793c-6.277,6.279-14.957,9.261-23.793,8.184c-4.425-0.534-8.438,2.579-9.024,6.987
				c-1.173,8.831-6.234,16.481-13.882,20.987c-8.252,4.859-18.345,5.286-27,1.142c-2.09-1.001-4.51-1.06-6.647-0.162
				c-2.138,0.898-3.789,2.667-4.536,4.861c-3.099,9.082-10.47,15.99-19.719,18.479c-8.93,2.407-18.541,0.326-25.707-5.565
				c-1.735-1.425-3.987-2.064-6.215-1.775c-2.229,0.295-4.234,1.502-5.54,3.33c-5.389,7.55-14.128,12.057-23.375,12.057
				s-17.986-4.507-23.376-12.056c-1.306-1.828-3.312-3.035-5.539-3.329c-2.231-0.291-4.479,0.348-6.214,1.775
				c-7.167,5.886-16.779,7.97-25.709,5.563c-9.248-2.49-16.617-9.399-19.718-18.479c-0.748-2.194-2.4-3.963-4.536-4.861
				c-2.134-0.897-4.555-0.837-6.647,0.162c-8.655,4.147-18.747,3.716-26.997-1.142c-7.652-4.506-12.713-12.156-13.886-20.987
				c-0.585-4.407-4.601-7.519-9.025-6.987c-8.851,1.083-17.514-1.905-23.792-8.183c-6.279-6.28-9.264-14.953-8.186-23.796
				c0.537-4.415-2.579-8.44-6.988-9.024c-8.829-1.172-16.477-6.232-20.983-13.881c-4.861-8.251-5.288-18.344-1.144-26.998
				c1.001-2.09,1.059-4.509,0.162-6.647c-0.898-2.138-2.667-3.788-4.86-4.536c-9.082-3.101-15.99-10.471-18.479-19.718
				c-2.407-8.93-0.327-18.541,5.564-25.708c1.426-1.736,2.07-3.988,1.775-6.215c-0.294-2.229-1.501-4.233-3.329-5.539
				c-7.552-5.391-12.06-14.13-12.06-23.378c0-2.976,0.462-5.879,1.335-8.645c9.924,7.883,19.51,9.453,25.546,9.453
				c9.321,0,27.114-3.73,41.54-28.718c7.67-13.286,17.432-20.604,27.488-20.604c10.057,0,19.818,7.318,27.49,20.604
				c14.422,24.988,32.215,28.718,41.538,28.718c9.322,0,27.116-3.73,41.544-28.718c7.67-13.286,17.431-20.604,27.486-20.604
				s19.816,7.318,27.488,20.606c14.429,24.985,32.221,28.716,41.543,28.716c9.321,0,27.114-3.73,41.541-28.718
				c7.67-13.286,17.432-20.604,27.487-20.604c10.056,0,19.817,7.318,27.489,20.605c14.424,24.986,32.218,28.717,41.54,28.717
				c6.035,0,15.618-1.568,25.539-9.445c0.872,2.764,1.332,5.662,1.332,8.636C489.963,271.057,485.456,279.795,477.907,285.185z
				 M490.554,225.833c-7.667,13.256-17.418,20.555-27.462,20.555c-10.056,0-19.816-7.317-27.487-20.603
				c-14.425-24.988-32.219-28.719-41.542-28.719c-9.322,0-27.117,3.731-41.54,28.719c-7.671,13.286-17.433,20.603-27.488,20.603
				c-10.055,0-19.817-7.317-27.49-20.603c-14.425-24.988-32.219-28.719-41.541-28.719s-27.116,3.731-41.539,28.718
				c-7.672,13.287-17.435,20.604-27.491,20.604c-10.055,0-19.815-7.317-27.484-20.603c-14.425-24.988-32.22-28.719-41.543-28.719
				s-27.118,3.731-41.541,28.719c-7.671,13.286-17.432,20.603-27.487,20.603s-19.817-7.317-27.489-20.603
				c-0.006-0.012-0.014-0.023-0.021-0.035c-4.127-8.695-5.031-18.544-2.538-27.801l0.272-1.032
				c5.281-20.208,18.684-59.699,49.12-97.15C113.315,44.333,176.479,16.228,256,16.228c79.517,0,142.679,28.103,187.731,83.529
				c30.44,37.447,43.846,76.946,49.129,97.157l0.273,1.034C495.633,207.233,494.714,217.116,490.554,225.833z"/>
			<path d="M196.993,138.937h-32.786c-4.482,0-8.114,3.632-8.114,8.114s3.632,8.114,8.114,8.114h32.786
				c4.482,0,8.114-3.632,8.114-8.114S201.474,138.937,196.993,138.937z"/>
			<path d="M165.276,118.027c4.482,0,8.114-3.632,8.114-8.114c0-3.976,3.234-7.209,7.209-7.209s7.209,3.234,7.209,7.209
				c0,4.482,3.632,8.114,8.114,8.114s8.114-3.632,8.114-8.114c0-12.923-10.515-23.437-23.437-23.437s-23.437,10.515-23.437,23.437
				C157.162,114.394,160.795,118.027,165.276,118.027z"/>
			<path d="M286.474,110.663c-4.482,0-8.114,3.632-8.114,8.114c0,3.926-3.195,7.121-7.123,7.121c-3.928,0-7.123-3.195-7.123-7.121
				c0-4.482-3.632-8.114-8.114-8.114s-8.114,3.632-8.114,8.114c0,3.926-3.195,7.121-7.123,7.121c-3.929,0-7.125-3.195-7.125-7.121
				c0-4.482-3.632-8.114-8.114-8.114s-8.114,3.632-8.114,8.114c0,12.874,10.477,23.349,23.353,23.349
				c5.824,0,11.143-2.156,15.237-5.695c4.094,3.539,9.413,5.695,15.237,5.695c12.875,0,23.351-10.474,23.351-23.349
				C294.588,114.295,290.955,110.663,286.474,110.663z"/>
		</g>
	</g>
</g>
<g>
</g>
<g>
</g>
<g>
</g>
<g>
</g>
<g>
</g>
<g>
</g>
<g>
</g>
<g>
</g>
<g>
</g>
<g>
</g>
<g>
</g>
<g>
</g>
<g>
</g>
<g>
</g>
<g>
</g>
</svg>
