<?xml version="1.0" ?><!DOCTYPE svg  PUBLIC '-//W3C//DTD SVG 1.1//EN'  'http://www.w3.org/Graphics/SVG/1.1/DTD/svg11.dtd'><svg enable-background="new 0 0 64 64" height="64px" id="Layer_1" version="1.1" viewBox="0 0 64 64" width="64px" xml:space="preserve" xmlns="http://www.w3.org/2000/svg" xmlns:xlink="http://www.w3.org/1999/xlink"><g><path d="M49.561,25.451c-3.64-3.119-8.007-4.055-13.416-1.871c-2.911,1.353-6.124,1.534-7.696,0.729   c0,0-6.24-4.473-14.249,1.455c-8.007,5.928-7.278,21.528,1.873,33.384c2.809,3.537,5.513,6.138,11.441,3.537   c4.16-1.561,6.97-1.456,9.673,0.104c2.703,1.561,6.133,1.974,9.773-2.396C50.603,56.026,62.247,39.073,49.561,25.451z    M44.536,57.785c-3.051,3.662-5.926,3.314-8.19,2.007c-2.265-1.309-4.621-1.395-8.105-0.087c-4.968,2.179-7.234,0-9.588-2.963   c-7.668-9.936-8.278-23.007-1.569-27.976c6.711-4.966,11.94-1.219,11.94-1.219c1.318,0.675,4.011,0.522,6.448-0.611   c4.534-1.831,8.195-1.046,11.243,1.568C57.348,39.92,47.589,54.127,44.536,57.785z" fill="#241F20"/><path d="M47.595,0.123c-18.929,3.884-15.358,19.96-15.358,19.96C48.153,16.519,47.201,7.641,47.595,0.123z    M44.545,4.019c-0.239,4.583,0.341,9.996-9.361,12.168C35.184,16.188,33.007,6.387,44.545,4.019z" fill="#241F20"/></g></svg>